<svg width="1024" height="1024" viewBox="0 0 1024 1024" fill="none" xmlns="http://www.w3.org/2000/svg">
<rect width="1024" height="1024" fill="#4C08DE"/>
<path d="M347.375 531.875C336.83 513.213 321.173 497.951 302.247 487.888C283.321 477.824 261.914 473.376 240.545 475.069C219.177 476.762 198.737 484.524 181.631 497.442C164.526 510.36 151.467 527.896 143.991 547.985C136.516 568.075 134.936 589.882 139.437 610.84C143.937 631.797 154.332 651.033 169.396 666.282C184.461 681.531 203.569 692.159 224.47 696.914C245.371 701.67 267.196 700.355 287.375 693.125" fill="white"/>
<path d="M347.375 531.875C336.83 513.213 321.173 497.951 302.247 487.888C283.321 477.824 261.914 473.376 240.545 475.069C219.177 476.762 198.737 484.524 181.631 497.442C164.526 510.36 151.467 527.896 143.991 547.985C136.516 568.075 134.936 589.882 139.437 610.84C143.937 631.797 154.332 651.033 169.396 666.282C184.461 681.531 203.569 692.159 224.47 696.914C245.371 701.67 267.196 700.355 287.375 693.125" stroke="black" stroke-width="50" stroke-linecap="round" stroke-linejoin="round"/>
<path d="M812 382.25V212C812 192.109 804.098 173.032 790.033 158.967C775.968 144.902 756.891 137 737 137C717.109 137 698.032 144.902 683.967 158.967C669.902 173.032 662 192.109 662 212V324.5" fill="white"/>
<path d="M812 382.25V212C812 192.109 804.098 173.032 790.033 158.967C775.968 144.902 756.891 137 737 137C717.109 137 698.032 144.902 683.967 158.967C669.902 173.032 662 192.109 662 212V324.5" stroke="black" stroke-width="50" stroke-linecap="round" stroke-linejoin="round"/>
<path d="M633.5 849.5C615.5 849.5 437 849.5 437 849.5C397.218 849.5 359.064 833.696 330.934 805.566C302.804 777.435 287 739.282 287 699.5C287 629.881 314.656 563.113 363.884 513.884C413.113 464.656 479.881 437 549.5 437H557L422 302C415.106 295.106 409.637 286.921 405.905 277.913C402.174 268.905 400.254 259.25 400.254 249.5C400.254 229.809 408.076 210.924 422 197C435.924 183.076 454.809 175.254 474.5 175.254C484.25 175.254 493.905 177.174 502.913 180.905C511.921 184.637 520.106 190.106 527 197L654.5 324.5H662C785.75 324.5 887 425.75 887 549.5V587C887 606.891 879.098 625.968 865.033 640.033C850.968 654.098 831.891 662 812 662H774.5C710.75 662 662 710.75 662 774.5" fill="white"/>
<path d="M633.5 849.5C615.5 849.5 437 849.5 437 849.5C397.218 849.5 359.064 833.696 330.934 805.566C302.804 777.435 287 739.282 287 699.5C287 629.881 314.656 563.113 363.884 513.884C413.113 464.656 479.881 437 549.5 437H557L422 302C415.106 295.106 409.637 286.921 405.905 277.913C402.174 268.905 400.254 259.25 400.254 249.5C400.254 229.809 408.076 210.924 422 197C435.924 183.076 454.809 175.254 474.5 175.254C484.25 175.254 493.905 177.174 502.913 180.905C511.921 184.637 520.106 190.106 527 197L654.5 324.5H662C785.75 324.5 887 425.75 887 549.5V587C887 606.891 879.098 625.968 865.033 640.033C850.968 654.098 831.891 662 812 662H774.5C710.75 662 662 710.75 662 774.5" stroke="black" stroke-width="50" stroke-linecap="round" stroke-linejoin="round"/>
<path d="M549.5 662C571.23 661.971 592.503 668.237 610.748 680.039C628.994 691.841 643.431 708.674 652.315 728.505C661.2 748.335 664.15 770.315 660.811 791.786C657.473 813.258 647.987 833.304 633.5 849.5" stroke="black" stroke-width="50" stroke-linecap="round" stroke-linejoin="round"/>
<path d="M737 512H737.375" stroke="black" stroke-width="50" stroke-linecap="round" stroke-linejoin="round"/>
</svg>
